<svg width="0" height="0" class="hidden">
  <symbol id="bedroom-icon" viewBox="0 0 28 23" fill="none" xmlns="http://www.w3.org/2000/svg">
  <path d="M28 12.65c0-.93-.51-1.77-1.32-2.18-.83-.43-1.91-.65-3.2-.65H9.43a3.9 3.9 0 0 0-.66-1.34L6.77 6.28a2.53 2.53 0 0 0-2-.94l-.36-.02a1.38 1.38 0 0 0-.54.06V4.22c0-.41-.17-.78-.45-1.05A1.93 1.93 0 0 0 3.87 1.93 1.93 1.93 0 0 0 0 1.93c0 .47.17.9.45 1.24a1.38 1.38 0 0 0-.45 1.05v17.46c0 .3.25.55.55.55h1.89c.28 0 .52-.22.55-.5.06-.69.43-2.58 1.34-3.41h1.46a.55.55 0 0 0 0-1.1H1.09v-4.81h7.3v1.42c0 .84.69 1.52 1.53 1.52h16.55c.06 0 .11 0 .17-.02v1.92H23.89v.01H10.59a.55.55 0 0 0 0 1.1h13.1c.9.85 1.27 2.74 1.33 3.42.03.28.27.5.55.5h1.89c.3 0 .55-.25.55-.55V12.65ZM3.87 7.17c.01-.23-.03-.47.17-.64.2-.17.43-.1.67-.08.52.04.96.23 1.27.6l1.99 2.21c.32.36.48.86.44 1.44 0 .21 0 .4-.18.55-.16.14-.34.12-.53.11-.55-.02-1.04-.23-1.36-.59L4.31 8.49c-.32-.36-.46-.85-.44-1.32ZM1.09 11.29V4.22c0-.19.16-.35.35-.35h.99c.19 0 .35.16.35.35v7.07H1.09Zm2.78-1.66 1.5 1.66h-1.5v-1.66ZM1.93 1.09c.46 0 .84.38.84.84s-.38.84-.84.84a.84.84 0 0 1 0-1.68Zm.02 20.03H1.09v-2.83h1.83a7.78 7.78 0 0 0-.97 2.83Zm7.97-6.88c-.24 0-.43-.2-.43-.43v-2.89h13.99c1.12 0 2.03.17 2.68.51.45.23.73.7.73 1.18v1.16c0 .24-.2.43-.43.43H9.92Zm16.12 6.88a7.78 7.78 0 0 0-.97-2.83h1.83v2.83h-1.86Z" fill="black"/>
  <path d="M8.69 17.54a.55.55 0 0 0-1.02.42.55.55 0 1 0 1.02-.42Z" fill="black"/>


  <symbol xmlns="http://www.w3.org/2000/svg" viewBox="0 0 23 22" id="childrensroom-icon">
  <path d="M22.77 18.33a.51.51 0 0 0-.91-.01c-.05.04-.12.1-.23.18V8.46a.645.645 0 0 0-1.29 0v.64c-2.3-.05-3.48-.38-4.63-.7-1.06-.3-2.08-.58-3.76-.58s-2.7.28-3.76.58c-1.15.32-2.33.65-4.63.7V5.88c0-2.31 1.06-3.89 2.97-4.44 1.78-.51 3.65.23 4.62 1.76a6.1 6.1 0 0 0-.6.37l-.73-.74a.65.65 0 0 0-.92.92l.84.83-.84.84a.65.65 0 0 0 .92.92l.73-.74c.21.17.51.33.88.48.61.25 1.35.44 1.82.44a1.79 1.79 0 1 0 0-3.58c-.26 0-.58.04-.87.1C9.72.6 7.17-.48 4.74.21 2.27.92.86 2.99.86 5.88v12.62c-.11-.09-.18-.14-.23-.18a.51.51 0 0 0-.91.01c-.25.26-.25.67 0 .92.06.06.76.73 2.47 1.38 1.67.66 4.32 1.32 8.12 1.32s6.45-.66 8.12-1.32c1.71-.65 2.41-1.32 2.47-1.38a.65.65 0 0 0-.01-.92ZM12.11 4.21c.46-.17.91-.26 1.14-.26.36 0 .65.3.65.65s-.3.65-.65.65c-.23 0-.68-.09-1.14-.26a3.5 3.5 0 0 1-.74-.43c.15-.14.41-.29.74-.43ZM3.58 10.39c2.49-.06 3.82-.43 5.01-.76.99-.29 1.83-.54 3.37-.54s2.38.25 3.37.54c1.19.33 2.52.7 5.01.76v6.45H3.58v-6.45Zm0 7.74h16.76v1.1c-2.45 1.12-5.64 1.48-8.38 1.48s-5.93-.36-8.38-1.48v-1.1Z" fill="black"/>
  <path d="M6.8 15.55a.65.65 0 0 0 .65-.65v-2.58a.65.65 0 0 0-1.3 0v2.58c0 .36.29.65.65.65ZM9.38 15.55a.65.65 0 0 0 .65-.65v-2.58a.65.65 0 0 0-1.3 0v2.58c0 .36.29.65.65.65ZM11.96 15.55a.65.65 0 0 0 .65-.65v-2.58a.65.65 0 0 0-1.3 0v2.58c0 .36.29.65.65.65ZM14.53 15.55a.65.65 0 0 0 .65-.65v-2.58a.65.65 0 0 0-1.3 0v2.58c0 .36.29.65.65.65ZM17.11 15.55a.65.65 0 0 0 .65-.65v-2.58a.65.65 0 0 0-1.3 0v2.58c0 .36.29.65.65.65Z" fill="black"/>
</symbol>

  <symbol xmlns="http://www.w3.org/2000/svg" viewBox="0 0 22 22" id="closet-icon">
    <path d="M21.2695 0H0.644531C0.288578 0 0 0.288578 0 0.644531C0 1.00048 0.288578 1.28906 0.644531 1.28906H0.6875V21.3555C0.6875 21.7114 0.976078 22 1.33203 22C1.68798 22 1.97656 21.7114 1.97656 21.3555V20.9688H19.9375V21.3555C19.9375 21.7114 20.2261 22 20.582 22C20.938 22 21.2266 21.7114 21.2266 21.3555V1.28906H21.2695C21.6255 1.28906 21.9141 1.00048 21.9141 0.644531C21.9141 0.288578 21.6255 0 21.2695 0ZM11.6016 13.3633H19.9375V15.8555H11.6016V13.3633ZM19.9375 12.0742H11.6016V9.58203H19.9375V12.0742ZM10.3125 19.6797H6.78906V1.28906H10.3125V19.6797ZM1.97656 1.28906H5.5V19.6797H1.97656V1.28906ZM11.6016 19.6797V17.1445H19.9375V19.6797H11.6016ZM19.9375 8.29297H11.6016V1.28906H19.9375V8.29297Z" fill="black"/>
    <path d="M8.55078 11.6445C8.90675 11.6445 9.19531 11.356 9.19531 11C9.19531 10.644 8.90675 10.3555 8.55078 10.3555C8.19482 10.3555 7.90625 10.644 7.90625 11C7.90625 11.356 8.19482 11.6445 8.55078 11.6445Z" fill="black"/>
    <path d="M3.73828 11.6446C4.09425 11.6446 4.38281 11.356 4.38281 11C4.38281 10.6441 4.09425 10.3555 3.73828 10.3555C3.38232 10.3555 3.09375 10.6441 3.09375 11C3.09375 11.356 3.38232 11.6446 3.73828 11.6446Z" fill="black"/>
  </symbol>
  <symbol xmlns="http://www.w3.org/2000/svg" viewBox="0 0 29 18" id="delivery-icon">
    <path d="M7.85418 14.9584H5.43751C5.10401 14.9584 4.83334 14.6877 4.83334 14.3542C4.83334 14.0207 5.10401 13.75 5.43751 13.75H7.85418C8.18768 13.75 8.45834 14.0207 8.45834 14.3542C8.45834 14.6877 8.18768 14.9584 7.85418 14.9584Z" fill="white"/>
    <path d="M27.4896 14.9584H25.9792C25.6457 14.9584 25.375 14.6877 25.375 14.3542C25.375 14.0207 25.6457 13.75 25.9792 13.75H26.9881L27.8026 9.40971C27.7917 7.18879 25.8946 5.29171 23.5625 5.29171H19.5956L17.6731 13.75H21.1459C21.4794 13.75 21.75 14.0207 21.75 14.3542C21.75 14.6877 21.4794 14.9584 21.1459 14.9584H16.9167C16.733 14.9584 16.559 14.875 16.4442 14.7312C16.3294 14.5886 16.2859 14.4001 16.327 14.2213L18.5238 4.55462C18.5866 4.27792 18.8307 4.08337 19.1134 4.08337H23.5625C26.5604 4.08337 29 6.523 29 9.52087L28.0829 14.4654C28.0297 14.7517 27.7808 14.9584 27.4896 14.9584Z" fill="white"/>
    <path d="M23.5625 17.375C21.8974 17.375 20.5417 16.0205 20.5417 14.3542C20.5417 12.6879 21.8974 11.3334 23.5625 11.3334C25.2276 11.3334 26.5833 12.6879 26.5833 14.3542C26.5833 16.0205 25.2276 17.375 23.5625 17.375ZM23.5625 12.5417C22.5632 12.5417 21.75 13.3549 21.75 14.3542C21.75 15.3535 22.5632 16.1667 23.5625 16.1667C24.5618 16.1667 25.375 15.3535 25.375 14.3542C25.375 13.3549 24.5618 12.5417 23.5625 12.5417Z" fill="white"/>
    <path d="M10.2708 17.375C8.60576 17.375 7.25001 16.0205 7.25001 14.3542C7.25001 12.6879 8.60576 11.3334 10.2708 11.3334C11.9359 11.3334 13.2917 12.6879 13.2917 14.3542C13.2917 16.0205 11.9359 17.375 10.2708 17.375ZM10.2708 12.5417C9.27155 12.5417 8.45834 13.3549 8.45834 14.3542C8.45834 15.3535 9.27155 16.1667 10.2708 16.1667C11.2701 16.1667 12.0833 15.3535 12.0833 14.3542C12.0833 13.3549 11.2701 12.5417 10.2708 12.5417Z" fill="white"/>
    <path d="M7.85417 4.08337H3.02084C2.68734 4.08337 2.41667 3.81271 2.41667 3.47921C2.41667 3.14571 2.68734 2.87504 3.02084 2.87504H7.85417C8.18767 2.87504 8.45834 3.14571 8.45834 3.47921C8.45834 3.81271 8.18767 4.08337 7.85417 4.08337Z" fill="white"/>
    <path d="M7.85418 7.70837H1.81251C1.47901 7.70837 1.20834 7.43771 1.20834 7.10421C1.20834 6.77071 1.47901 6.50004 1.81251 6.50004H7.85418C8.18768 6.50004 8.45834 6.77071 8.45834 7.10421C8.45834 7.43771 8.18768 7.70837 7.85418 7.70837Z" fill="white"/>
    <path d="M7.85417 11.3334H0.604167C0.270667 11.3334 0 11.0627 0 10.7292C0 10.3957 0.270667 10.125 0.604167 10.125H7.85417C8.18767 10.125 8.45833 10.3957 8.45833 10.7292C8.45833 11.0627 8.18767 11.3334 7.85417 11.3334Z" fill="white"/>
    <path d="M16.9167 14.9584L12.6875 14.9584C12.354 14.9584 12.0833 14.6877 12.0833 14.3542C12.0833 14.0207 12.354 13.75 12.6875 13.75H16.4346L19.1799 1.66671H5.43751C5.10401 1.66671 4.83334 1.39604 4.83334 1.06254C4.83334 0.729041 5.10401 0.458374 5.43751 0.458374H19.9375C20.1212 0.458374 20.2952 0.541749 20.41 0.685541C20.5248 0.828124 20.5683 1.01662 20.5272 1.19546L17.5063 14.4871C17.4435 14.7638 17.1982 14.9584 16.9167 14.9584Z" fill="white"/>
  </symbol>


  <symbol fill="none" xmlns="http://www.w3.org/2000/svg" viewBox="0 0 3 16" id="etc">
    <path d="M1.63636 2.27273C1.28491 2.27273 1 1.98782 1 1.63636C1 1.28491 1.28491 1 1.63636 1C1.98782 1 2.27273 1.28491 2.27273 1.63636C2.27273 1.98782 1.98782 2.27273 1.63636 2.27273Z" stroke="black"></path>
    <path d="M1.63636 8.63636C1.28491 8.63636 1 8.35145 1 8C1 7.64855 1.28491 7.36364 1.63636 7.36364C1.98782 7.36364 2.27273 7.64855 2.27273 8C2.27273 8.35145 1.98782 8.63636 1.63636 8.63636Z" stroke="black"></path>
    <path d="M1.63636 15C1.28491 15 1 14.7151 1 14.3636C1 14.0122 1.28491 13.7273 1.63636 13.7273C1.98782 13.7273 2.27273 14.0122 2.27273 14.3636C2.27273 14.7151 1.98782 15 1.63636 15Z" stroke="black"></path>
  </symbol>
  <symbol xmlns="http://www.w3.org/2000/svg" viewBox="0 0 23 23" id="kitchen-icon">
    <path d="M11.5 0V12.9375H0V23H23V0H11.5ZM11.5 21.5625H1.4375V14.375H11.5V21.5625ZM21.5625 21.5625H12.9375V7.1875H21.5625V21.5625ZM21.5625 5.75H12.9375V1.4375H21.5625V5.75Z" fill="black"/>
    <path d="M10.0625 4.73369L8.625 3.29619V0H7.1875V3.89131L8.625 5.32881V5.75H2.875V5.32881L4.3125 3.89131V0H2.875V3.29619L1.4375 4.73369V7.1875H10.0625V4.73369Z" fill="black"/>
    <path d="M8.625 15.8125H4.3125V17.25H8.625V15.8125Z" fill="black"/>
    <path d="M15.8125 2.875H14.375V4.3125H15.8125V2.875Z" fill="black"/>
    <path d="M15.8125 10.0625H14.375V14.375H15.8125V10.0625Z" fill="black"/>
    <path d="M2.875 8.625H1.4375V10.0625H2.875V8.625Z" fill="black"/>
    <path d="M6.46875 8.625H5.03125V10.0625H6.46875V8.625Z" fill="black"/>
    <path d="M10.0625 8.625H8.625V10.0625H10.0625V8.625Z" fill="black"/>
  </symbol>

  <symbol xmlns="http://www.w3.org/2000/svg" viewBox="0 0 30 23" id="livingroom-icon">
    <path d="M29.5312 15.9375H28.125V13.125H29.0625C29.3214 13.1249 29.5311 12.9149 29.531 12.656C29.531 12.6304 29.5289 12.6047 29.5247 12.5794L29.0559 9.76688C29.0184 9.54082 28.8229 9.37512 28.5938 9.375H26.7188C26.4896 9.37512 26.2941 9.54082 26.2566 9.76688L25.7878 12.5794C25.7453 12.8347 25.9179 13.0762 26.1734 13.1187C26.1987 13.1229 26.2243 13.125 26.25 13.125H27.1875V15.9375H25.3125C25.2967 15.9397 25.281 15.9428 25.2656 15.9469C25.0455 14.8525 24.0851 14.0644 22.9688 14.0625H22.0312V12.6562C22.0312 11.8796 21.4017 11.25 20.625 11.25H16.875C16.0983 11.25 15.4688 11.8796 15.4688 12.6562V14.0625H14.5312V12.6562C14.5312 11.8796 13.9017 11.25 13.125 11.25H9.375C8.59834 11.25 7.96875 11.8796 7.96875 12.6562V14.0625H7.03125C5.91492 14.0644 4.95445 14.8525 4.73438 15.9469C4.71897 15.9428 4.70332 15.9397 4.6875 15.9375H2.8125V13.125H3.75C4.00887 13.1249 4.21863 12.9149 4.21852 12.656C4.21852 12.6304 4.21641 12.6047 4.21219 12.5794L3.74344 9.76688C3.70588 9.54082 3.51041 9.37512 3.28125 9.375H1.40625C1.17709 9.37512 0.981621 9.54082 0.944062 9.76688L0.475313 12.5794C0.432832 12.8347 0.605449 13.0762 0.860859 13.1187C0.886172 13.1229 0.911836 13.125 0.9375 13.125H1.875V15.9375H0.46875C0.209883 15.9375 0 16.1474 0 16.4062V21.5625C0 21.8214 0.209883 22.0312 0.46875 22.0312H29.5312C29.7901 22.0312 30 21.8214 30 21.5625V16.4062C30 16.1474 29.7901 15.9375 29.5312 15.9375ZM1.49109 12.1875L1.80328 10.3125H2.88422L3.19641 12.1875H1.49109ZM4.21875 21.0938H0.9375V16.875H4.21875V21.0938ZM16.4062 12.6562C16.4062 12.3974 16.6161 12.1875 16.875 12.1875H20.625C20.8839 12.1875 21.0938 12.3974 21.0938 12.6562V14.0625H16.4062V12.6562ZM8.90625 12.6562C8.90625 12.3974 9.11613 12.1875 9.375 12.1875H13.125C13.3839 12.1875 13.5938 12.3974 13.5938 12.6562V14.0625H8.90625V12.6562ZM24.375 21.0938H5.625V19.6875H24.375V21.0938ZM24.375 18.75H5.625V16.4062C5.625 15.6296 6.25459 15 7.03125 15H22.9688C23.7454 15 24.375 15.6296 24.375 16.4062V18.75ZM26.8036 12.1875L27.1158 10.3125H28.1967L28.5089 12.1875H26.8036ZM29.0625 21.0938H25.7812V16.875H29.0625V21.0938Z" fill="black"/>
    <path d="M9.375 8.4375H19.6875C19.9464 8.4375 20.1562 8.22762 20.1562 7.96875V0.46875C20.1562 0.209883 19.9464 0 19.6875 0H9.375C9.11613 0 8.90625 0.209883 8.90625 0.46875V7.96875C8.90625 8.22762 9.11613 8.4375 9.375 8.4375ZM9.84375 0.9375H19.2188V5.69438L18.1786 4.39453C18.0954 4.29029 17.9719 4.22637 17.8387 4.21875C17.7058 4.21289 17.5764 4.26223 17.4811 4.35516L15.9375 5.89969L12.9877 2.94984C12.8145 2.77693 12.5374 2.76633 12.3516 2.92547L9.84375 5.07516V0.9375ZM9.84375 6.30891L12.6314 3.91828L15.6061 6.8925C15.7891 7.07549 16.0859 7.07549 16.2689 6.8925L17.7736 5.38781L19.2188 7.19625V7.5H9.84375V6.30891Z" fill="black"/>
    <path d="M16.4062 4.21875C17.1829 4.21875 17.8125 3.58916 17.8125 2.8125C17.8125 2.03584 17.1829 1.40625 16.4062 1.40625C15.6296 1.40625 15 2.03584 15 2.8125C15 3.58916 15.6296 4.21875 16.4062 4.21875ZM16.4062 2.34375C16.6651 2.34375 16.875 2.55363 16.875 2.8125C16.875 3.07137 16.6651 3.28125 16.4062 3.28125C16.1474 3.28125 15.9375 3.07137 15.9375 2.8125C15.9375 2.55363 16.1474 2.34375 16.4062 2.34375Z" fill="black"/>
</symbol>


  <symbol fill="none" xmlns="http://www.w3.org/2000/svg" viewBox="0 0 113 25" id="LOGO">
    <g fill="#2E2E2E">
    <path d="M0.49936 21.3204C0.366197 21.3204 0.246351 21.2737 0.139821 21.1804C0.0466069 21.0737 0 20.9537 0 20.8204V7.82176C0 7.67511 0.0466069 7.55512 0.139821 7.4618C0.246351 7.36847 0.366197 7.32181 0.49936 7.32181H2.65659C2.97618 7.32181 3.20922 7.46846 3.3557 7.76176L6.87119 14.0611L10.3867 7.76176C10.5332 7.46846 10.7662 7.32181 11.0858 7.32181H13.223C13.3695 7.32181 13.4894 7.36847 13.5826 7.4618C13.6891 7.55512 13.7424 7.67511 13.7424 7.82176V20.8204C13.7424 20.9671 13.6891 21.0871 13.5826 21.1804C13.4894 21.2737 13.3695 21.3204 13.223 21.3204H10.8461C10.6996 21.3204 10.5731 21.2737 10.4666 21.1804C10.3734 21.0871 10.3268 20.9671 10.3268 20.8204V13.3212L8.08963 17.5008C7.91652 17.8074 7.68348 17.9607 7.39052 17.9607H6.35185C6.17874 17.9607 6.03892 17.9207 5.93239 17.8407C5.82586 17.7607 5.73265 17.6474 5.65275 17.5008L3.39565 13.3212V20.8204C3.39565 20.9537 3.34904 21.0737 3.25583 21.1804C3.16261 21.2737 3.04276 21.3204 2.89629 21.3204H0.49936Z"/>
    <path d="M23.3326 21.3204C23.1994 21.3204 23.0796 21.2737 22.973 21.1804C22.8798 21.0737 22.8332 20.9537 22.8332 20.8204V7.82176C22.8332 7.67511 22.8798 7.55512 22.973 7.4618C23.0796 7.36847 23.1994 7.32181 23.3326 7.32181H32.6606C32.8071 7.32181 32.9269 7.36847 33.0202 7.4618C33.1134 7.55512 33.16 7.67511 33.16 7.82176V9.70157C33.16 9.83489 33.1134 9.95487 33.0202 10.0615C32.9269 10.1549 32.8071 10.2015 32.6606 10.2015H26.2888V12.9012H32.2212C32.3677 12.9012 32.4875 12.9546 32.5807 13.0612C32.6739 13.1545 32.7205 13.2745 32.7205 13.4212V15.161C32.7205 15.2943 32.6739 15.4143 32.5807 15.521C32.4875 15.6143 32.3677 15.661 32.2212 15.661H26.2888V18.4407H32.8204C32.9669 18.4407 33.0867 18.4873 33.18 18.5807C33.2732 18.674 33.3198 18.794 33.3198 18.9406V20.8204C33.3198 20.9537 33.2732 21.0737 33.18 21.1804C33.0867 21.2737 32.9669 21.3204 32.8204 21.3204H23.3326Z"/>
    <path d="M42.3816 21.3204C42.2484 21.3204 42.1286 21.2737 42.0221 21.1804C41.9288 21.0737 41.8822 20.9537 41.8822 20.8204V7.82176C41.8822 7.67511 41.9288 7.55512 42.0221 7.4618C42.1286 7.36847 42.2484 7.32181 42.3816 7.32181H51.9693C52.1158 7.32181 52.2356 7.36847 52.3288 7.4618C52.422 7.55512 52.4687 7.67511 52.4687 7.82176V9.82155C52.4687 9.96821 52.422 10.0949 52.3288 10.2015C52.2356 10.2948 52.1158 10.3415 51.9693 10.3415H45.4776V12.7013H48.2541C49.852 12.7013 51.1104 13.0812 52.0292 13.8411C52.948 14.6011 53.4075 15.641 53.4075 16.9608C53.4075 17.7874 53.2077 18.534 52.8082 19.2006C52.4087 19.8539 51.8228 20.3738 51.0505 20.7604C50.2781 21.1337 49.346 21.3204 48.2541 21.3204H42.3816ZM47.9345 18.7206C48.4804 18.7206 48.9066 18.5473 49.2128 18.2007C49.5324 17.8541 49.6922 17.4341 49.6922 16.9408C49.6922 16.4475 49.5391 16.0409 49.2328 15.721C48.9265 15.401 48.4938 15.241 47.9345 15.241H45.4776V18.7206H47.9345Z"/>
    <path d="M61.8012 21.3204C61.6681 21.3204 61.5482 21.2737 61.4417 21.1804C61.3485 21.0737 61.3019 20.9537 61.3019 20.8204V7.82176C61.3019 7.67511 61.3485 7.55512 61.4417 7.4618C61.5482 7.36847 61.6681 7.32181 61.8012 7.32181H71.1293C71.2757 7.32181 71.3956 7.36847 71.4888 7.4618C71.582 7.55512 71.6286 7.67511 71.6286 7.82176V9.70157C71.6286 9.83489 71.582 9.95487 71.4888 10.0615C71.3956 10.1549 71.2757 10.2015 71.1293 10.2015H64.7575V12.9012H70.6899C70.8364 12.9012 70.9562 12.9546 71.0495 13.0612C71.1427 13.1545 71.1893 13.2745 71.1893 13.4212V15.161C71.1893 15.2943 71.1427 15.4143 71.0495 15.521C70.9562 15.6143 70.8364 15.661 70.6899 15.661H64.7575V18.4407H71.2901C71.4366 18.4407 71.5564 18.4873 71.6496 18.5807C71.7428 18.674 71.7894 18.794 71.7894 18.9406V20.8204C71.7894 20.9537 71.7428 21.0737 71.6496 21.1804C71.5564 21.2737 71.4366 21.3204 71.2901 21.3204H61.8012Z"/>
    </g>
  </symbol>


  <symbol xmlns="http://www.w3.org/2000/svg" viewBox="0 0 23 22" id="office-icon">
    <g fill="black">
    <path d="M22.3125 10.3984H21.3211C21.5413 10.0189 21.668 9.57881 21.668 9.10938V7.17578C21.668 6.81983 21.3794 6.53125 21.0234 6.53125H19.8029C20.1742 4.80137 21.9349 3.85352 21.9653 3.8375C22.2804 3.67366 22.4037 3.28552 22.2405 2.96978C22.0771 2.65353 21.6883 2.52961 21.372 2.69302C21.3088 2.72577 20.4899 3.15842 19.7344 3.99536V1.97656C19.7344 1.62061 19.4458 1.33203 19.0898 1.33203C18.7339 1.33203 18.4453 1.62061 18.4453 1.97656V3.99536C17.6898 3.15842 16.8709 2.72577 16.8076 2.69302C16.4913 2.52953 16.1025 2.65358 15.9391 2.96978C15.7757 3.28604 15.8996 3.67486 16.2158 3.83823C16.2358 3.84854 18.0075 4.78427 18.3777 6.53125H17.1562C16.8003 6.53125 16.5117 6.81983 16.5117 7.17578V9.10938C16.5117 9.57881 16.6384 10.0189 16.8586 10.3984H11.0663L10.4218 9.10938H13.2891C13.645 9.10938 13.9336 8.8208 13.9336 8.46484V0.644531C13.9336 0.288578 13.645 0 13.2891 0H2.89062C2.53467 0 2.24609 0.288578 2.24609 0.644531V8.46484C2.24609 8.8208 2.53467 9.10938 2.89062 9.10938H5.75793L5.1134 10.3984H1.60156C1.24561 10.3984 0.957031 10.687 0.957031 11.043C0.957031 11.3989 1.24561 11.6875 1.60156 11.6875H2.24609V21.3555C2.24609 21.7114 2.53467 22 2.89062 22C3.24658 22 3.53516 21.7114 3.53516 21.3555V19.4219H12.6445V21.3555C12.6445 21.7114 12.9331 22 13.2891 22H21.0234C21.3794 22 21.668 21.7114 21.668 21.3555V11.6875H22.3125C22.6685 11.6875 22.957 11.3989 22.957 11.043C22.957 10.687 22.6685 10.3984 22.3125 10.3984ZM17.8008 9.10938V7.82031H20.3789V9.10938C20.3789 9.82016 19.8006 10.3984 19.0898 10.3984C18.3791 10.3984 17.8008 9.82016 17.8008 9.10938ZM3.53516 1.28906H12.6445V7.82031H3.53516V1.28906ZM7.1991 9.10938H8.98059L9.62512 10.3984H6.55457L7.1991 9.10938ZM3.53516 18.1328V11.6875H12.6445V18.1328H3.53516ZM13.9336 16.8438H20.3789V20.7109H13.9336V16.8438ZM20.3789 15.5547H13.9336V11.6875H20.3789V15.5547Z"/>
    <path d="M17.1562 14.2656C17.5122 14.2656 17.8008 13.9771 17.8008 13.6211C17.8008 13.2651 17.5122 12.9766 17.1562 12.9766C16.8003 12.9766 16.5117 13.2651 16.5117 13.6211C16.5117 13.9771 16.8003 14.2656 17.1562 14.2656Z"/>
    <path d="M17.1562 19.4219C17.5122 19.4219 17.8008 19.1333 17.8008 18.7773C17.8008 18.4214 17.5122 18.1328 17.1562 18.1328C16.8003 18.1328 16.5117 18.4214 16.5117 18.7773C16.5117 19.1333 16.8003 19.4219 17.1562 19.4219Z"/>
    </g>
  </symbol>

  <symbol fill="none" xmlns="http://www.w3.org/2000/svg" viewBox="0 0 30 30" id="sprite">
    <path fill-rule="evenodd" clip-rule="evenodd" d="M30 0H0V30H30V0ZM12.2929 18.2929L11.5858 19L13 20.4142L13.7071 19.7071L17.7071 15.7071L18.4142 15L17.7071 14.2929L13.7071 10.2929L13 9.58579L11.5858 11L12.2929 11.7071L15.5858 15L12.2929 18.2929Z" fill="white"></path>
  </symbol>

  <symbol id="custom-icon" viewBox="0 0 68 68">
  <path d="M40.5622 16.6875L45.2215 20.1345C45.746 20.5224 45.4809 21.3809 44.8177 21.3851L43.3556 21.394C43.3541 21.394 43.3528 21.394 43.3514 21.394C42.9752 21.394 42.6682 21.0896 42.6658 20.7134C42.659 19.6132 41.7622 18.7246 40.6615 18.7336C39.5613 18.7404 38.6749 19.6378 38.6815 20.738C38.6947 22.8637 40.1341 24.6518 42.0846 25.2025V25.2989C42.0846 26.3991 42.9766 27.2911 44.0766 27.2911C45.1767 27.2911 46.0687 26.3991 46.0687 25.2989V25.1984C46.8449 24.9832 47.5554 24.5694 48.1366 23.9807C49.0134 23.0928 49.4918 21.9166 49.4832 20.6656V20.6531C49.4732 19.1919 48.7659 17.8006 47.591 16.9315L42.9318 13.4846C42.4027 13.093 42.6806 12.2494 43.3398 12.2494H44.8042C45.1823 12.2494 45.4899 12.5566 45.4899 12.9342C45.4899 14.0344 46.3819 14.9264 47.482 14.9264C48.582 14.9264 49.474 14.0344 49.474 12.9342C49.474 10.7979 48.0309 8.99326 46.0686 8.4405V8.34461C46.0686 7.24439 45.1766 6.35242 44.0765 6.35242C42.9764 6.35242 42.0845 7.24439 42.0845 8.34461V8.43784C40.1175 8.98755 38.6698 10.7945 38.6698 12.9342C38.67 14.4078 39.3773 15.8108 40.5622 16.6875Z" fill="currentColor"/>
  <path d="M44.0766 33.6434C53.3546 33.6434 60.9026 26.0972 60.9026 16.8216C60.9026 7.546 53.3545 0 44.0766 0C34.7987 0 27.2506 7.54614 27.2506 16.8218C27.2506 26.0974 34.7987 33.6434 44.0766 33.6434ZM44.0766 3.98437C51.1576 3.98437 56.9184 9.74325 56.9184 16.8218C56.9184 23.9003 51.1576 29.6591 44.0766 29.6591C36.9957 29.6591 31.2348 23.9003 31.2348 16.8218C31.2348 9.74325 36.9957 3.98437 44.0766 3.98437Z" fill="currentColor"/>
  <path d="M66.63 38.1419C64.4754 35.368 60.5856 34.8461 57.7857 36.7886L50.2059 41.8596C49.1526 39.8983 47.0815 38.5614 44.7035 38.5614H39.2966C36.5673 36.0016 32.9236 34.5482 29.1652 34.5482C26.3444 34.5482 23.6004 35.3451 21.2301 36.8528C19.0943 38.2113 17.3473 40.088 16.1468 42.3035L15.1319 42.9242L14.8689 42.1551C14.513 41.1142 13.3809 40.5587 12.3399 40.9143L1.34845 44.6701C0.307868 45.0257 -0.248351 46.1587 0.107587 47.1998L6.75791 66.6518C7.11398 67.6933 8.24647 68.2479 9.28692 67.8925L20.2784 64.137C21.26 63.8015 21.903 62.7301 21.4972 61.5429L38.9382 61.003C43.688 60.9966 48.2429 59.5379 52.112 56.7841L65.2647 47.4285C68.2801 45.2821 68.9026 41.0656 66.63 38.1419ZM9.88352 63.4781L4.52214 47.7963L11.7433 45.3289C12.5212 47.6042 16.3018 58.6623 17.1047 61.0108L9.88352 63.4781ZM62.955 44.1819L49.8023 53.5375C46.6027 55.8148 42.835 57.0185 38.9066 57.0185C38.8862 57.0185 38.8655 57.0188 38.845 57.0194L20.1486 57.5981L16.4524 46.7868L18.6989 45.413C18.6995 45.4127 18.6999 45.4123 18.7004 45.4119C19.0311 45.2095 19.2897 44.9124 19.4475 44.5908C21.281 40.8539 25.0046 38.5323 29.1652 38.5323C32.1718 38.5323 34.9644 39.736 37.0284 41.9216C37.4085 42.3243 37.9546 42.5454 38.4767 42.5454H44.7035C45.9482 42.5454 46.9608 43.5574 46.9608 44.8015C46.9608 46.0325 45.9651 47.0576 44.7035 47.0576H33.4637C32.3635 47.0576 31.4717 47.9495 31.4717 49.0498C31.4717 50.15 32.3636 51.0419 33.4637 51.0419H44.7035C46.372 51.0419 47.9396 50.3922 49.1162 49.2139C49.9394 48.391 50.5034 47.3787 50.7696 46.2758L60.0161 40.0898C60.0273 40.0824 60.0383 40.0748 60.0493 40.0671C61.1397 39.3054 62.6501 39.5128 63.484 40.5863C64.3633 41.7178 64.1229 43.3506 62.955 44.1819Z" fill="currentColor"/>
</symbol>

<symbol fill="none" xmlns="http://www.w3.org/2000/svg" viewBox="0 0 68 51" id="vector">
    <path d="M67.9005 23.953C66.8958 13.8802 58.3719 5.98826 48.0391 5.98826H46.0431V0H32.0704V11.9765H5.98826V23.953H0V44.5793H8.23692C9.12557 48.019 12.255 50.5675 15.9687 50.5675C19.6822 50.5675 22.8118 48.019 23.7005 44.5793H46.2958C47.1844 48.019 50.3139 50.5675 54.0275 50.5675C57.7411 50.5675 60.8706 48.019 61.7593 44.5793H68C68 42.234 68 25.834 68 23.953H67.9005ZM48.0391 9.98043C56.1683 9.98043 62.8981 16.0867 63.8837 23.953H46.0431V9.98043H48.0391ZM36.0626 3.99217H42.0509V23.953H36.0626C36.0626 23.0315 36.0626 4.91037 36.0626 3.99217ZM9.98043 15.9687H32.0704V23.953H9.98043V15.9687ZM15.9687 46.5753C13.7674 46.5753 11.9765 44.7845 11.9765 42.5832C11.9765 40.3819 13.7674 38.591 15.9687 38.591C18.17 38.591 19.9609 40.3819 19.9609 42.5832C19.9609 44.7845 18.17 46.5753 15.9687 46.5753ZM23.7005 40.5871C22.8118 37.1473 19.6823 34.5988 15.9687 34.5988C12.2552 34.5988 9.12557 37.1473 8.23692 40.5871H3.99217V27.9452H42.0509V40.5871H23.7005ZM54.0274 46.5753C51.8261 46.5753 50.0352 44.7845 50.0352 42.5832C50.0352 40.3819 51.8261 38.591 54.0274 38.591C56.2287 38.591 58.0196 40.3819 58.0196 42.5832C58.0196 44.7845 56.2287 46.5753 54.0274 46.5753ZM64.0078 40.5871H61.7592C60.8705 37.1473 57.741 34.5988 54.0274 34.5988C50.3139 34.5988 47.1843 37.1473 46.2956 40.5871H46.0431V27.9452H64.0078V40.5871Z" fill="#245462"></path>
  </symbol>

  <symbol fill="none" xmlns="http://www.w3.org/2000/svg" viewBox="0 0 68 68" id="production">
    <path d="M34 13.4141C22.6489 13.4141 13.4141 22.6489 13.4141 34C13.4141 45.3511 22.6489 54.5859 34 54.5859C45.3511 54.5859 54.5859 45.3511 54.5859 34C54.5859 22.6489 45.3511 13.4141 34 13.4141ZM34 50.6016C24.8459 50.6016 17.3984 43.1541 17.3984 34C17.3984 24.8459 24.8459 17.3984 34 17.3984C43.1541 17.3984 50.6016 24.8459 50.6016 34C50.6016 43.1541 43.1541 50.6016 34 50.6016Z" fill="#245462"></path>
    <path d="M41.9688 24.0391H26.0312C24.931 24.0391 24.0391 24.931 24.0391 26.0312V41.9688C24.0391 43.069 24.931 43.9609 26.0312 43.9609H41.9688C43.069 43.9609 43.9609 43.069 43.9609 41.9688V26.0312C43.9609 24.931 43.069 24.0391 41.9688 24.0391ZM39.9766 39.9766H28.0234V28.0234H32.0078V30.0156C32.0078 31.1158 32.8998 32.0078 34 32.0078C35.1002 32.0078 35.9922 31.1158 35.9922 30.0156V28.0234H39.9766V39.9766Z" fill="#245462"></path>
    <path d="M66.0078 26.6953H61.6093C60.9581 24.229 59.9773 21.8694 58.6807 19.6496L61.7982 16.5322C62.1718 16.1586 62.3818 15.652 62.3818 15.1235C62.3818 14.5952 62.1718 14.0885 61.7982 13.7149L54.2852 6.20195C53.5074 5.42393 52.2459 5.42393 51.4679 6.20195L48.3504 9.31945C46.1304 8.02267 43.771 7.04198 41.3047 6.3908V1.99219C41.3047 0.891969 40.4127 0 39.3125 0H28.6875C27.5873 0 26.6953 0.891969 26.6953 1.99219V6.3908C24.229 7.04198 21.8696 8.02267 19.6497 9.31932L16.5322 6.20181C15.7544 5.4238 14.4929 5.4238 13.7149 6.20181L6.20195 13.7148C5.82834 14.0884 5.61837 14.595 5.61837 15.1234C5.61837 15.6518 5.82834 16.1584 6.20195 16.5321L9.31945 19.6495C8.02267 21.8696 7.04198 24.229 6.3908 26.6953H1.99219C0.891969 26.6953 0 27.5873 0 28.6875V39.3125C0 40.4127 0.891969 41.3047 1.99219 41.3047H6.39067C7.04185 43.771 8.02267 46.1304 9.31932 48.3503L6.20181 51.4676C5.82821 51.8412 5.61823 52.3479 5.61823 52.8764C5.61823 53.4047 5.82808 53.9114 6.20181 54.285L13.7148 61.7981C14.0884 62.1717 14.595 62.3816 15.1234 62.3816C15.6517 62.3816 16.1584 62.1717 16.532 61.7981L19.6495 58.6805C21.8693 59.9772 24.2287 60.9579 26.695 61.6092V66.0078C26.695 67.108 27.587 68 28.6872 68H39.3122C40.4125 68 41.3044 67.108 41.3044 66.0078V61.6093C43.7707 60.9581 46.1302 59.9773 48.35 58.6807L51.4675 61.7982C51.8411 62.1718 52.3478 62.3818 52.8761 62.3818C53.4046 62.3818 53.9111 62.1718 54.2847 61.7982L61.7977 54.2851C62.1713 53.9115 62.3812 53.4048 62.3812 52.8765C62.3812 52.348 62.1713 51.8415 61.7977 51.4678L58.6801 48.3504C59.9768 46.1306 60.9575 43.7711 61.6088 41.3048H66.0078C67.108 41.3048 68 40.4129 68 39.3126V28.6876C68 27.5873 67.108 26.6953 66.0078 26.6953ZM64.0156 37.3203H60.0291C59.0816 37.3203 58.2652 37.9876 58.0768 38.9162C57.4527 41.9904 56.2469 44.8922 54.4928 47.5409C53.9698 48.3307 54.0753 49.3797 54.7452 50.0496L57.5721 52.8764L52.8765 57.572L50.0496 54.745C49.3798 54.0751 48.3309 53.9697 47.541 54.4927C44.8922 56.2468 41.9905 57.4526 38.9163 58.0766C37.9878 58.2651 37.3204 59.0815 37.3204 60.029V64.0156H30.6798V60.0291C30.6798 59.0816 30.0126 58.2652 29.0839 58.0768C26.0097 57.4527 23.1079 56.2469 20.4592 54.4928C19.6693 53.9697 18.6204 54.0753 17.9507 54.7452L15.1238 57.5721L10.4282 52.8765L13.2551 50.0497C13.925 49.3798 14.0304 48.331 13.5074 47.541C11.7534 44.8922 10.5476 41.9905 9.92348 38.9163C9.73476 37.9877 8.91836 37.3203 7.97087 37.3203H3.98438V30.6797H7.97087C8.91836 30.6797 9.73476 30.0124 9.92322 29.0838C10.5473 26.0096 11.7531 23.1076 13.5072 20.459C14.0302 19.6691 13.9247 18.6202 13.2548 17.9503L10.4279 15.1235L15.1235 10.4279L17.9504 13.2548C18.6202 13.9247 19.669 14.0302 20.459 13.5072C23.1078 11.7531 26.0095 10.5473 29.0837 9.92335C30.0124 9.73476 30.6797 8.91836 30.6797 7.97101V3.98438H37.3203V7.97101C37.3203 8.91849 37.9876 9.73489 38.9162 9.92335C41.9903 10.5474 44.8921 11.7532 47.5409 13.5072C48.3307 14.0302 49.3797 13.9247 50.0495 13.2548L52.8764 10.4279L57.572 15.1235L54.745 17.9503C54.0751 18.6202 53.9697 19.669 54.4927 20.459C56.2468 23.1078 57.4526 26.0096 58.0766 29.0838C58.2651 30.0123 59.0815 30.6797 60.029 30.6797H64.0156V37.3203Z" fill="#245462"></path>
  </symbol>

  <symbol fill="none" xmlns="http://www.w3.org/2000/svg" viewBox="0 0 68 68" id="profit">
    <path d="M40.5622 16.6875L45.2215 20.1345C45.746 20.5224 45.4809 21.3809 44.8177 21.3851L43.3556 21.394C43.3541 21.394 43.3528 21.394 43.3514 21.394C42.9752 21.394 42.6682 21.0896 42.6658 20.7134C42.659 19.6132 41.7622 18.7246 40.6615 18.7336C39.5613 18.7404 38.6749 19.6378 38.6815 20.738C38.6947 22.8637 40.1341 24.6518 42.0846 25.2025V25.2989C42.0846 26.3991 42.9766 27.2911 44.0766 27.2911C45.1767 27.2911 46.0687 26.3991 46.0687 25.2989V25.1984C46.8449 24.9832 47.5554 24.5694 48.1366 23.9807C49.0134 23.0928 49.4918 21.9166 49.4832 20.6656V20.6531C49.4732 19.1919 48.7659 17.8006 47.591 16.9315L42.9318 13.4846C42.4027 13.093 42.6806 12.2494 43.3398 12.2494H44.8042C45.1823 12.2494 45.4899 12.5566 45.4899 12.9342C45.4899 14.0344 46.3819 14.9264 47.482 14.9264C48.582 14.9264 49.474 14.0344 49.474 12.9342C49.474 10.7979 48.0309 8.99326 46.0686 8.4405V8.34461C46.0686 7.24439 45.1766 6.35242 44.0765 6.35242C42.9764 6.35242 42.0845 7.24439 42.0845 8.34461V8.43784C40.1175 8.98755 38.6698 10.7945 38.6698 12.9342C38.67 14.4078 39.3773 15.8108 40.5622 16.6875Z" fill="#245462"></path>
    <path d="M44.0766 33.6434C53.3546 33.6434 60.9026 26.0972 60.9026 16.8216C60.9026 7.546 53.3545 0 44.0766 0C34.7987 0 27.2506 7.54614 27.2506 16.8218C27.2506 26.0974 34.7987 33.6434 44.0766 33.6434ZM44.0766 3.98437C51.1576 3.98437 56.9184 9.74325 56.9184 16.8218C56.9184 23.9003 51.1576 29.6591 44.0766 29.6591C36.9957 29.6591 31.2348 23.9003 31.2348 16.8218C31.2348 9.74325 36.9957 3.98437 44.0766 3.98437Z" fill="#245462"></path>
    <path d="M66.63 38.1419C64.4754 35.368 60.5856 34.8461 57.7857 36.7886L50.2059 41.8596C49.1526 39.8983 47.0815 38.5614 44.7035 38.5614H39.2966C36.5673 36.0016 32.9236 34.5482 29.1652 34.5482C26.3444 34.5482 23.6004 35.3451 21.2301 36.8528C19.0943 38.2113 17.3473 40.088 16.1468 42.3035L15.1319 42.9242L14.8689 42.1551C14.513 41.1142 13.3809 40.5587 12.3399 40.9143L1.34845 44.6701C0.307868 45.0257 -0.248351 46.1587 0.107587 47.1998L6.75791 66.6518C7.11398 67.6933 8.24647 68.2479 9.28692 67.8925L20.2784 64.137C21.26 63.8015 21.903 62.7301 21.4972 61.5429L38.9382 61.003C43.688 60.9966 48.2429 59.5379 52.112 56.7841L65.2647 47.4285C68.2801 45.2821 68.9026 41.0656 66.63 38.1419ZM9.88352 63.4781L4.52214 47.7963L11.7433 45.3289C12.5212 47.6042 16.3018 58.6623 17.1047 61.0108L9.88352 63.4781ZM62.955 44.1819L49.8023 53.5375C46.6027 55.8148 42.835 57.0185 38.9066 57.0185C38.8862 57.0185 38.8655 57.0188 38.845 57.0194L20.1486 57.5981L16.4524 46.7868L18.6989 45.413C18.6995 45.4127 18.6999 45.4123 18.7004 45.4119C19.0311 45.2095 19.2897 44.9124 19.4475 44.5908C21.281 40.8539 25.0046 38.5323 29.1652 38.5323C32.1718 38.5323 34.9644 39.736 37.0284 41.9216C37.4085 42.3243 37.9546 42.5454 38.4767 42.5454H44.7035C45.9482 42.5454 46.9608 43.5574 46.9608 44.8015C46.9608 46.0325 45.9651 47.0576 44.7035 47.0576H33.4637C32.3635 47.0576 31.4717 47.9495 31.4717 49.0498C31.4717 50.15 32.3636 51.0419 33.4637 51.0419H44.7035C46.372 51.0419 47.9396 50.3922 49.1162 49.2139C49.9394 48.391 50.5034 47.3787 50.7696 46.2758L60.0161 40.0898C60.0273 40.0824 60.0383 40.0748 60.0493 40.0671C61.1397 39.3054 62.6501 39.5128 63.484 40.5863C64.3633 41.7178 64.1229 43.3506 62.955 44.1819Z" fill="#245462"></path>
  </symbol>

  <symbol fill="none" xmlns="http://www.w3.org/2000/svg" viewBox="0 0 70 70" id="time">
    <path d="M61.7446 14.0072H63.8456C64.5785 14.0072 65.1729 13.4129 65.1729 12.68C65.1729 11.9471 64.5785 11.3527 63.8456 11.3527H58.802C58.0691 11.3527 57.4748 11.9471 57.4748 12.68V17.7235C57.4748 18.4564 58.0691 19.0508 58.802 19.0508C59.535 19.0508 60.1293 18.4564 60.1293 17.7235V16.2632C64.1565 21.6546 66.3455 28.1962 66.3455 35C66.3455 52.284 52.284 66.3455 35 66.3455C17.716 66.3455 3.65451 52.284 3.65451 35C3.65451 17.716 17.716 3.65451 35 3.65451C36.2783 3.65451 37.5648 3.73215 38.8241 3.88519C39.5508 3.97305 40.2135 3.45555 40.3019 2.72782C40.3904 2.00022 39.8722 1.33845 39.1445 1.25005C37.7793 1.08415 36.385 1 35 1C25.9183 1 17.38 4.5366 10.9584 10.9584C4.5366 17.38 1 25.9183 1 35C1 44.0817 4.5366 52.62 10.9584 59.0416C17.38 65.4634 25.9183 69 35 69C44.0817 69 52.62 65.4634 59.0416 59.0416C65.4634 52.62 69 44.0817 69 35C69 27.3363 66.4397 19.9791 61.7446 14.0072Z" fill="#245462"></path>
    <path d="M15.397 21.0433C14.7775 20.6512 13.9577 20.8357 13.5655 21.4547C10.5355 26.2403 9.19418 31.9955 9.78865 37.6604C10.3919 43.4092 12.9794 48.8305 17.0745 52.9258C22.0165 57.8678 28.5082 60.3389 35.0001 60.3389C41.492 60.3389 47.9836 57.8679 52.9257 52.9258C62.8099 43.0416 62.8099 26.9587 52.9257 17.0746C48.8369 12.9859 43.4244 10.3994 37.6851 9.79147C32.0308 9.19222 26.2818 10.5231 21.4982 13.5382C20.878 13.9291 20.6923 14.7486 21.0831 15.3687C21.4739 15.989 22.2935 16.1746 22.9136 15.7839C31.9307 10.1006 43.5 11.403 51.0486 18.9516C59.8978 27.8008 59.8978 42.1994 51.0486 51.0486C42.1995 59.898 27.8007 59.898 18.9516 51.0486C11.5073 43.6043 10.1854 31.7555 15.8084 22.8749C16.2004 22.2554 16.0163 21.4355 15.397 21.0433Z" fill="#245462"></path>
    <path d="M52.2544 36.3487H53.8912C54.6241 36.3487 55.2184 35.7544 55.2184 35.0215C55.2184 34.2886 54.6241 33.6942 53.8912 33.6942H52.2544C51.5215 33.6942 50.9271 34.2886 50.9271 35.0215C50.9271 35.7544 51.5214 36.3487 52.2544 36.3487Z" fill="#245462"></path>
    <path d="M14.7816 34.9785C14.7816 35.7114 15.3759 36.3058 16.1088 36.3058H17.7456C18.4785 36.3058 19.0729 35.7114 19.0729 34.9785C19.0729 34.2456 18.4785 33.6512 17.7456 33.6512H16.1088C15.3759 33.6512 14.7816 34.2455 14.7816 34.9785Z" fill="#245462"></path>
    <path d="M36.3487 17.7456V16.1088C36.3487 15.3759 35.7544 14.7815 35.0215 14.7815C34.2886 14.7815 33.6942 15.3759 33.6942 16.1088V17.7456C33.6942 18.4785 34.2886 19.0728 35.0215 19.0728C35.7544 19.0728 36.3487 18.4785 36.3487 17.7456Z" fill="#245462"></path>
    <path d="M33.6512 52.2544V53.8912C33.6512 54.6241 34.2456 55.2185 34.9785 55.2185C35.7114 55.2185 36.3057 54.6241 36.3057 53.8912V52.2544C36.3057 51.5215 35.7114 50.9272 34.9785 50.9272C34.2456 50.9272 33.6512 51.5214 33.6512 52.2544Z" fill="#245462"></path>
    <path d="M28.3473 26.4701C27.8289 25.952 26.9887 25.952 26.4701 26.4701C25.9519 26.9884 25.9519 27.8288 26.4701 28.3473L30.9683 32.8455C30.6237 33.4879 30.4276 34.2214 30.4276 35C30.4276 37.5212 32.4788 39.5724 35 39.5724C37.5213 39.5724 39.5724 37.5212 39.5724 35C39.5724 34.2214 39.3762 33.4879 39.0317 32.8455L48.1078 23.7693C48.6261 23.251 48.6261 22.4106 48.1078 21.8922C47.5894 21.374 46.7493 21.374 46.2307 21.8922L37.1545 30.9683C36.5122 30.6236 35.7786 30.4276 35 30.4276C34.2214 30.4276 33.4879 30.6238 32.8455 30.9683L28.3473 26.4701ZM36.9179 35C36.9179 36.0576 36.0576 36.9179 35 36.9179C33.9425 36.9179 33.0821 36.0576 33.0821 35C33.0821 33.9424 33.9425 33.0821 35 33.0821C36.0576 33.0821 36.9179 33.9424 36.9179 35Z" fill="#245462"></path>
    <path d="M18.9509 18.9509C19.1991 18.704 19.3409 18.3616 19.3409 18.0125C19.3409 17.6634 19.1991 17.3223 18.9509 17.0741C18.704 16.8274 18.3628 16.6852 18.0125 16.6852C17.6634 16.6852 17.321 16.8272 17.0741 17.0741C16.8274 17.321 16.6852 17.6634 16.6852 18.0125C16.6852 18.3629 16.8273 18.704 17.0741 18.9509C17.321 19.1976 17.6634 19.3397 18.0125 19.3397C18.3628 19.3397 18.704 19.1976 18.9509 18.9509Z" fill="#245462"></path>
    <path d="M44.1939 4.96557C44.5444 4.96557 44.8869 4.82475 45.1336 4.57669C45.3805 4.32982 45.5226 3.98858 45.5226 3.63832C45.5226 3.28925 45.3806 2.94682 45.1336 2.69995C44.8869 2.45321 44.5444 2.31106 44.1939 2.31106C43.8448 2.31106 43.5024 2.45308 43.2557 2.69995C43.0088 2.94682 42.8667 3.28925 42.8667 3.63832C42.8667 3.98871 43.0087 4.32982 43.2557 4.57669C43.5024 4.82475 43.8448 4.96557 44.1939 4.96557Z" fill="#245462"></path>
    <path d="M61.7446 14.0072H63.8456C64.5785 14.0072 65.1729 13.4129 65.1729 12.68C65.1729 11.9471 64.5785 11.3527 63.8456 11.3527H58.802C58.0691 11.3527 57.4748 11.9471 57.4748 12.68V17.7235C57.4748 18.4564 58.0691 19.0508 58.802 19.0508C59.535 19.0508 60.1293 18.4564 60.1293 17.7235V16.2632C64.1565 21.6546 66.3455 28.1962 66.3455 35C66.3455 52.284 52.284 66.3455 35 66.3455C17.716 66.3455 3.65451 52.284 3.65451 35C3.65451 17.716 17.716 3.65451 35 3.65451C36.2783 3.65451 37.5648 3.73215 38.8241 3.88519C39.5508 3.97305 40.2135 3.45555 40.3019 2.72782C40.3904 2.00022 39.8722 1.33845 39.1445 1.25005C37.7793 1.08415 36.385 1 35 1C25.9183 1 17.38 4.5366 10.9584 10.9584C4.5366 17.38 1 25.9183 1 35C1 44.0817 4.5366 52.62 10.9584 59.0416C17.38 65.4634 25.9183 69 35 69C44.0817 69 52.62 65.4634 59.0416 59.0416C65.4634 52.62 69 44.0817 69 35C69 27.3363 66.4397 19.9791 61.7446 14.0072Z" stroke="#245462"></path>
    <path d="M15.397 21.0433C14.7775 20.6512 13.9577 20.8357 13.5655 21.4547C10.5355 26.2403 9.19418 31.9955 9.78865 37.6604C10.3919 43.4092 12.9794 48.8305 17.0745 52.9258C22.0165 57.8678 28.5082 60.3389 35.0001 60.3389C41.492 60.3389 47.9836 57.8679 52.9257 52.9258C62.8099 43.0416 62.8099 26.9587 52.9257 17.0746C48.8369 12.9859 43.4244 10.3994 37.6851 9.79147C32.0308 9.19222 26.2818 10.5231 21.4982 13.5382C20.878 13.9291 20.6923 14.7486 21.0831 15.3687C21.4739 15.989 22.2935 16.1746 22.9136 15.7839C31.9307 10.1006 43.5 11.403 51.0486 18.9516C59.8978 27.8008 59.8978 42.1994 51.0486 51.0486C42.1995 59.898 27.8007 59.898 18.9516 51.0486C11.5073 43.6043 10.1854 31.7555 15.8084 22.8749C16.2004 22.2554 16.0163 21.4355 15.397 21.0433Z" stroke="#245462"></path>
    <path d="M52.2544 36.3487H53.8912C54.6241 36.3487 55.2184 35.7544 55.2184 35.0215C55.2184 34.2886 54.6241 33.6942 53.8912 33.6942H52.2544C51.5215 33.6942 50.9271 34.2886 50.9271 35.0215C50.9271 35.7544 51.5214 36.3487 52.2544 36.3487Z" stroke="#245462"></path>
    <path d="M14.7816 34.9785C14.7816 35.7114 15.3759 36.3058 16.1088 36.3058H17.7456C18.4785 36.3058 19.0729 35.7114 19.0729 34.9785C19.0729 34.2456 18.4785 33.6512 17.7456 33.6512H16.1088C15.3759 33.6512 14.7816 34.2455 14.7816 34.9785Z" stroke="#245462"></path>
    <path d="M36.3487 17.7456V16.1088C36.3487 15.3759 35.7544 14.7815 35.0215 14.7815C34.2886 14.7815 33.6942 15.3759 33.6942 16.1088V17.7456C33.6942 18.4785 34.2886 19.0728 35.0215 19.0728C35.7544 19.0728 36.3487 18.4785 36.3487 17.7456Z" stroke="#245462"></path>
    <path d="M33.6512 52.2544V53.8912C33.6512 54.6241 34.2456 55.2185 34.9785 55.2185C35.7114 55.2185 36.3057 54.6241 36.3057 53.8912V52.2544C36.3057 51.5215 35.7114 50.9272 34.9785 50.9272C34.2456 50.9272 33.6512 51.5214 33.6512 52.2544Z" stroke="#245462"></path>
    <path d="M28.3473 26.4701C27.8289 25.952 26.9887 25.952 26.4701 26.4701C25.9519 26.9884 25.9519 27.8288 26.4701 28.3473L30.9683 32.8455C30.6237 33.4879 30.4276 34.2214 30.4276 35C30.4276 37.5212 32.4788 39.5724 35 39.5724C37.5213 39.5724 39.5724 37.5212 39.5724 35C39.5724 34.2214 39.3762 33.4879 39.0317 32.8455L48.1078 23.7693C48.6261 23.251 48.6261 22.4106 48.1078 21.8922C47.5894 21.374 46.7493 21.374 46.2307 21.8922L37.1545 30.9683C36.5122 30.6236 35.7786 30.4276 35 30.4276C34.2214 30.4276 33.4879 30.6238 32.8455 30.9683L28.3473 26.4701ZM36.9179 35C36.9179 36.0576 36.0576 36.9179 35 36.9179C33.9425 36.9179 33.0821 36.0576 33.0821 35C33.0821 33.9424 33.9425 33.0821 35 33.0821C36.0576 33.0821 36.9179 33.9424 36.9179 35Z" stroke="#245462"></path>
    <path d="M18.9509 18.9509C19.1991 18.704 19.3409 18.3616 19.3409 18.0125C19.3409 17.6634 19.1991 17.3223 18.9509 17.0741C18.704 16.8274 18.3628 16.6852 18.0125 16.6852C17.6634 16.6852 17.321 16.8272 17.0741 17.0741C16.8274 17.321 16.6852 17.6634 16.6852 18.0125C16.6852 18.3629 16.8273 18.704 17.0741 18.9509C17.321 19.1976 17.6634 19.3397 18.0125 19.3397C18.3628 19.3397 18.704 19.1976 18.9509 18.9509Z" stroke="#245462"></path>
    <path d="M44.1939 4.96557C44.5444 4.96557 44.8869 4.82475 45.1336 4.57669C45.3805 4.32982 45.5226 3.98858 45.5226 3.63832C45.5226 3.28925 45.3806 2.94682 45.1336 2.69995C44.8869 2.45321 44.5444 2.31106 44.1939 2.31106C43.8448 2.31106 43.5024 2.45308 43.2557 2.69995C43.0088 2.94682 42.8667 3.28925 42.8667 3.63832C42.8667 3.98871 43.0087 4.32982 43.2557 4.57669C43.5024 4.82475 43.8448 4.96557 44.1939 4.96557Z" stroke="#245462"></path>
  </symbol>
  
</svg>